<?xml version="1.0" encoding="utf-8"?>
<!-- Generator: Adobe Illustrator 24.3.0, SVG Export Plug-In . SVG Version: 6.00 Build 0)  -->
<svg version="1.1" id="Слой_1" xmlns="http://www.w3.org/2000/svg" xmlns:xlink="http://www.w3.org/1999/xlink" x="0px" y="0px"
	 viewBox="0 0 100 100" style="enable-background:new 0 0 100 100;" xml:space="preserve">
<style type="text/css">
	.st0{fill:#EF3124;}
	.st1{clip-path:url(#SVGID_2_);}
	.st2{fill:#FFFFFF;}
</style>
<g id="Слой_1_1_">
	<path class="st0" d="M50,0L50,0c27.6,0,50,22.4,50,50l0,0c0,27.6-22.4,50-50,50l0,0C22.4,100,0,77.6,0,50l0,0C0,22.4,22.4,0,50,0z"
		/>
</g>
<g id="Слой_2_1_">
	<g>
		<defs>
			<rect id="SVGID_1_" x="14.4" y="14.6" width="70.8" height="70.8"/>
		</defs>
		<clipPath id="SVGID_2_">
			<use xlink:href="#SVGID_1_"  style="overflow:visible;"/>
		</clipPath>
		<g class="st1">
			<path class="st2" d="M54.7,32.7c-0.8-2.3-1.7-4.1-4.7-4.1s-4,1.8-4.8,4.1l-8.4,23.8h5.6l1.9-5.7H55l1.8,5.7h5.9L54.7,32.7z
				 M45.9,46.1l3.8-11.3h0.1l3.6,11.3H45.9z"/>
		</g>
	</g>
	<rect x="36.2" y="64.1" class="st2" width="27.1" height="5.6"/>
</g>
</svg>
