<svg xmlns="http://www.w3.org/2000/svg" xmlns:xlink="http://www.w3.org/1999/xlink" viewBox="0 0 100 100"><defs><style>.cls-1{fill:url(#Безымянный_градиент_79);}.cls-2{fill:#fff;}</style><linearGradient id="Безымянный_градиент_79" x1="25.98" y1="74.98" x2="95.29" y2="2.9" gradientUnits="userSpaceOnUse"><stop offset="0" stop-color="#a3cd38"/><stop offset="0.04" stop-color="#a3cd38"/><stop offset="0.04" stop-color="#a3cd38"/><stop offset="0.11" stop-color="#8ec850"/><stop offset="0.21" stop-color="#75c26c"/><stop offset="0.27" stop-color="#6cc076"/><stop offset="0.28" stop-color="#69bf7a"/><stop offset="0.28" stop-color="#65be7f"/><stop offset="0.36" stop-color="#55ba91"/><stop offset="0.51" stop-color="#2cafbf"/><stop offset="0.61" stop-color="#0fa8e0"/></linearGradient></defs><g id="Слой_2" data-name="Слой 2"><rect class="cls-1" width="100" height="100" rx="50"/></g><g id="Слой_1" data-name="Слой 1"><path class="cls-2" d="M71.34,32.85a27.7,27.7,0,0,1,3.24,5.45L50,56.69,39.66,50.16V42.29L50,48.83Z"/><path class="cls-2" d="M29.16,49.6c0-.35,0-.7,0-1.05l-6.24-.31c0,.45,0,.91,0,1.37A27.45,27.45,0,0,0,30.83,69l4.42-4.48A21.16,21.16,0,0,1,29.16,49.6Z"/><path class="cls-2" d="M50,28.53c.34,0,.69,0,1,0l.32-6.32c-.45,0-.9,0-1.35,0a26.77,26.77,0,0,0-19.12,8l4.42,4.48A20.93,20.93,0,0,1,42,30.13,20.54,20.54,0,0,1,50,28.53Z"/><path class="cls-2" d="M50,70.67c-.35,0-.7,0-1,0L48.59,77c.45,0,.9,0,1.36,0a26.72,26.72,0,0,0,19.1-8l-4.41-4.48a20.77,20.77,0,0,1-6.74,4.58A20.49,20.49,0,0,1,50,70.67Z"/><path class="cls-2" d="M61.67,32.21l5.25-3.93a26.7,26.7,0,0,0-17-6.08v6.33A20.5,20.5,0,0,1,61.67,32.21Z"/><path class="cls-2" d="M77,49.6a27.82,27.82,0,0,0-.42-4.91L70.74,49v.56A21.31,21.31,0,0,1,69,58.15a21,21,0,0,1-5.06,7.07l4.2,4.7A27.54,27.54,0,0,0,77,49.6Z"/><path class="cls-2" d="M50,70.67a20.49,20.49,0,0,1-8.44-1.81,20.72,20.72,0,0,1-7-5.13L29.9,68A26.81,26.81,0,0,0,50,77Z"/><path class="cls-2" d="M36,34l-4.19-4.7a27.5,27.5,0,0,0-8.9,20.32h6.25A21.1,21.1,0,0,1,36,34Z"/></g></svg>