<?xml version="1.0" encoding="utf-8"?>
<!-- Generator: Adobe Illustrator 24.3.0, SVG Export Plug-In . SVG Version: 6.00 Build 0)  -->
<svg version="1.1" id="Слой_1" xmlns="http://www.w3.org/2000/svg" xmlns:xlink="http://www.w3.org/1999/xlink" x="0px" y="0px"
	 viewBox="0 0 100 100" style="enable-background:new 0 0 100 100;" xml:space="preserve">
<style type="text/css">
	.st0{fill:#0A2973;}
	.st1{fill:#009FDF;}
</style>
<g id="vtb_logo_new">
	<path class="st0" d="M50,0L50,0c27.6,0,50,22.4,50,50l0,0c0,27.6-22.4,50-50,50l0,0C22.4,100,0,77.6,0,50l0,0C0,22.4,22.4,0,50,0z"
		/>
</g>
<g id="Слой_3">
	<polygon class="st1" points="35.7,34.1 32.3,42.5 73.3,42.5 77,34.1 	"/>
	<polygon class="st1" points="31.6,45.8 28.3,54.2 69.2,54.2 72.9,45.8 	"/>
	<polygon class="st1" points="26.8,57.5 23.4,65.9 64.3,65.9 68,57.5 	"/>
</g>
</svg>
